<mxfile modified="2023-08-08T10:20:25.900Z" host="app.diagrams.net" agent="Mozilla/5.0 (Macintosh; Intel Mac OS X 10_15_7) AppleWebKit/537.36 (KHTML, like Gecko) Chrome/115.0.0.0 Safari/537.36" etag="V8nLlsgygu7oyGz-Sz9g" version="21.6.6" type="github">
  <diagram id="Ht1M8jgEwFfnCIfOTk4-" name="Page-1">
    <mxGraphModel dx="1489" dy="769" grid="0" gridSize="10" guides="1" tooltips="1" connect="1" arrows="1" fold="1" page="1" pageScale="1" pageWidth="1169" pageHeight="827" math="0" shadow="0">
      <root>
        <mxCell id="0" />
        <mxCell id="1" parent="0" />
        <mxCell id="5NzhP2JsU66vbnNHi4hS-126" style="edgeStyle=orthogonalEdgeStyle;rounded=0;orthogonalLoop=1;jettySize=auto;html=1;entryX=0;entryY=0.75;entryDx=0;entryDy=0;entryPerimeter=0;" edge="1" parent="1" source="5NzhP2JsU66vbnNHi4hS-10" target="5NzhP2JsU66vbnNHi4hS-123">
          <mxGeometry relative="1" as="geometry" />
        </mxCell>
        <mxCell id="5NzhP2JsU66vbnNHi4hS-14" style="edgeStyle=orthogonalEdgeStyle;rounded=0;orthogonalLoop=1;jettySize=auto;html=1;" edge="1" parent="1" source="5NzhP2JsU66vbnNHi4hS-13" target="5NzhP2JsU66vbnNHi4hS-75">
          <mxGeometry relative="1" as="geometry">
            <mxPoint x="290" y="440" as="targetPoint" />
          </mxGeometry>
        </mxCell>
        <mxCell id="5NzhP2JsU66vbnNHi4hS-13" value="desktop" style="sketch=0;outlineConnect=0;gradientColor=none;fontColor=#545B64;strokeColor=none;fillColor=#879196;dashed=0;verticalLabelPosition=bottom;verticalAlign=top;align=center;html=1;fontSize=12;fontStyle=0;aspect=fixed;shape=mxgraph.aws4.illustration_desktop;pointerEvents=1" vertex="1" parent="1">
          <mxGeometry x="160" y="394.5" width="100" height="91" as="geometry" />
        </mxCell>
        <mxCell id="5NzhP2JsU66vbnNHi4hS-19" value="" style="sketch=0;points=[[0,0,0],[0.25,0,0],[0.5,0,0],[0.75,0,0],[1,0,0],[0,1,0],[0.25,1,0],[0.5,1,0],[0.75,1,0],[1,1,0],[0,0.25,0],[0,0.5,0],[0,0.75,0],[1,0.25,0],[1,0.5,0],[1,0.75,0]];outlineConnect=0;fontColor=#232F3E;gradientColor=#4D72F3;gradientDirection=north;fillColor=#3334B9;strokeColor=#ffffff;dashed=0;verticalLabelPosition=bottom;verticalAlign=top;align=center;html=1;fontSize=12;fontStyle=0;aspect=fixed;shape=mxgraph.aws4.resourceIcon;resIcon=mxgraph.aws4.cloud9;" vertex="1" parent="1">
          <mxGeometry x="190" y="400" width="40" height="40" as="geometry" />
        </mxCell>
        <mxCell id="5NzhP2JsU66vbnNHi4hS-20" value="" style="sketch=0;points=[[0,0,0],[0.25,0,0],[0.5,0,0],[0.75,0,0],[1,0,0],[0,1,0],[0.25,1,0],[0.5,1,0],[0.75,1,0],[1,1,0],[0,0.25,0],[0,0.5,0],[0,0.75,0],[1,0.25,0],[1,0.5,0],[1,0.75,0]];points=[[0,0,0],[0.25,0,0],[0.5,0,0],[0.75,0,0],[1,0,0],[0,1,0],[0.25,1,0],[0.5,1,0],[0.75,1,0],[1,1,0],[0,0.25,0],[0,0.5,0],[0,0.75,0],[1,0.25,0],[1,0.5,0],[1,0.75,0]];outlineConnect=0;fontColor=#232F3E;gradientColor=#F34482;gradientDirection=north;fillColor=#BC1356;strokeColor=#ffffff;dashed=0;verticalLabelPosition=bottom;verticalAlign=top;align=center;html=1;fontSize=12;fontStyle=0;aspect=fixed;shape=mxgraph.aws4.resourceIcon;resIcon=mxgraph.aws4.autoscaling;" vertex="1" parent="1">
          <mxGeometry x="40" width="40" height="40" as="geometry" />
        </mxCell>
        <mxCell id="5NzhP2JsU66vbnNHi4hS-22" value="" style="sketch=0;points=[[0,0,0],[0.25,0,0],[0.5,0,0],[0.75,0,0],[1,0,0],[0,1,0],[0.25,1,0],[0.5,1,0],[0.75,1,0],[1,1,0],[0,0.25,0],[0,0.5,0],[0,0.75,0],[1,0.25,0],[1,0.5,0],[1,0.75,0]];points=[[0,0,0],[0.25,0,0],[0.5,0,0],[0.75,0,0],[1,0,0],[0,1,0],[0.25,1,0],[0.5,1,0],[0.75,1,0],[1,1,0],[0,0.25,0],[0,0.5,0],[0,0.75,0],[1,0.25,0],[1,0.5,0],[1,0.75,0]];outlineConnect=0;fontColor=#232F3E;gradientColor=#F34482;gradientDirection=north;fillColor=#BC1356;strokeColor=#ffffff;dashed=0;verticalLabelPosition=bottom;verticalAlign=top;align=center;html=1;fontSize=12;fontStyle=0;aspect=fixed;shape=mxgraph.aws4.resourceIcon;resIcon=mxgraph.aws4.cloudwatch_2;" vertex="1" parent="1">
          <mxGeometry x="320" width="40" height="40" as="geometry" />
        </mxCell>
        <mxCell id="5NzhP2JsU66vbnNHi4hS-23" value="Auto Scaling" style="text;strokeColor=none;align=center;fillColor=#FFBD24;html=1;verticalAlign=middle;whiteSpace=wrap;rounded=0;" vertex="1" parent="1">
          <mxGeometry x="40" y="40" width="60" height="30" as="geometry" />
        </mxCell>
        <mxCell id="5NzhP2JsU66vbnNHi4hS-24" value="Network Load Balancer" style="text;strokeColor=none;align=center;fillColor=#FFBD24;html=1;verticalAlign=middle;whiteSpace=wrap;rounded=0;" vertex="1" parent="1">
          <mxGeometry x="520" y="120" width="80" height="30" as="geometry" />
        </mxCell>
        <mxCell id="5NzhP2JsU66vbnNHi4hS-25" value="" style="sketch=0;points=[[0,0,0],[0.25,0,0],[0.5,0,0],[0.75,0,0],[1,0,0],[0,1,0],[0.25,1,0],[0.5,1,0],[0.75,1,0],[1,1,0],[0,0.25,0],[0,0.5,0],[0,0.75,0],[1,0.25,0],[1,0.5,0],[1,0.75,0]];points=[[0,0,0],[0.25,0,0],[0.5,0,0],[0.75,0,0],[1,0,0],[0,1,0],[0.25,1,0],[0.5,1,0],[0.75,1,0],[1,1,0],[0,0.25,0],[0,0.5,0],[0,0.75,0],[1,0.25,0],[1,0.5,0],[1,0.75,0]];outlineConnect=0;fontColor=#232F3E;gradientColor=#F34482;gradientDirection=north;fillColor=#BC1356;strokeColor=#ffffff;dashed=0;verticalLabelPosition=bottom;verticalAlign=top;align=center;html=1;fontSize=12;fontStyle=0;aspect=fixed;shape=mxgraph.aws4.resourceIcon;resIcon=mxgraph.aws4.cloudtrail;" vertex="1" parent="1">
          <mxGeometry x="400" width="40" height="40" as="geometry" />
        </mxCell>
        <mxCell id="5NzhP2JsU66vbnNHi4hS-27" value="" style="sketch=0;points=[[0,0,0],[0.25,0,0],[0.5,0,0],[0.75,0,0],[1,0,0],[0,1,0],[0.25,1,0],[0.5,1,0],[0.75,1,0],[1,1,0],[0,0.25,0],[0,0.5,0],[0,0.75,0],[1,0.25,0],[1,0.5,0],[1,0.75,0]];outlineConnect=0;fontColor=#232F3E;gradientColor=#945DF2;gradientDirection=north;fillColor=#5A30B5;strokeColor=#ffffff;dashed=0;verticalLabelPosition=bottom;verticalAlign=top;align=center;html=1;fontSize=12;fontStyle=0;aspect=fixed;shape=mxgraph.aws4.resourceIcon;resIcon=mxgraph.aws4.elastic_load_balancing;" vertex="1" parent="1">
          <mxGeometry x="520" width="40" height="40" as="geometry" />
        </mxCell>
        <mxCell id="5NzhP2JsU66vbnNHi4hS-28" value="" style="sketch=0;outlineConnect=0;fontColor=#232F3E;gradientColor=none;fillColor=#4D27AA;strokeColor=none;dashed=0;verticalLabelPosition=bottom;verticalAlign=top;align=center;html=1;fontSize=12;fontStyle=0;aspect=fixed;pointerEvents=1;shape=mxgraph.aws4.endpoint;" vertex="1" parent="1">
          <mxGeometry x="120" y="200" width="40" height="40" as="geometry" />
        </mxCell>
        <mxCell id="5NzhP2JsU66vbnNHi4hS-29" value="EndPoint" style="text;strokeColor=none;align=center;fillColor=#FFBD24;html=1;verticalAlign=middle;whiteSpace=wrap;rounded=0;" vertex="1" parent="1">
          <mxGeometry x="120" y="240" width="60" height="20" as="geometry" />
        </mxCell>
        <mxCell id="5NzhP2JsU66vbnNHi4hS-30" value="Elastic Load Balancer" style="text;strokeColor=none;align=center;fillColor=#FFBD24;html=1;verticalAlign=middle;whiteSpace=wrap;rounded=0;" vertex="1" parent="1">
          <mxGeometry x="520" y="40" width="100" height="30" as="geometry" />
        </mxCell>
        <mxCell id="5NzhP2JsU66vbnNHi4hS-31" value="" style="sketch=0;outlineConnect=0;fontColor=#232F3E;gradientColor=none;fillColor=#4D27AA;strokeColor=none;dashed=0;verticalLabelPosition=bottom;verticalAlign=top;align=center;html=1;fontSize=12;fontStyle=0;aspect=fixed;pointerEvents=1;shape=mxgraph.aws4.network_load_balancer;" vertex="1" parent="1">
          <mxGeometry x="520" y="80" width="40" height="40" as="geometry" />
        </mxCell>
        <mxCell id="5NzhP2JsU66vbnNHi4hS-32" value="" style="sketch=0;outlineConnect=0;fontColor=#232F3E;gradientColor=none;fillColor=#4D27AA;strokeColor=none;dashed=0;verticalLabelPosition=bottom;verticalAlign=top;align=center;html=1;fontSize=12;fontStyle=0;aspect=fixed;pointerEvents=1;shape=mxgraph.aws4.internet_gateway;" vertex="1" parent="1">
          <mxGeometry x="40" y="120" width="40" height="40" as="geometry" />
        </mxCell>
        <mxCell id="5NzhP2JsU66vbnNHi4hS-33" value="CloudWatch" style="text;strokeColor=none;align=center;fillColor=#FFBD24;html=1;verticalAlign=middle;whiteSpace=wrap;rounded=0;" vertex="1" parent="1">
          <mxGeometry x="320" y="40" width="70" height="20" as="geometry" />
        </mxCell>
        <mxCell id="5NzhP2JsU66vbnNHi4hS-34" value="" style="sketch=0;outlineConnect=0;fontColor=#232F3E;gradientColor=none;fillColor=#4D27AA;strokeColor=none;dashed=0;verticalLabelPosition=bottom;verticalAlign=top;align=center;html=1;fontSize=12;fontStyle=0;aspect=fixed;pointerEvents=1;shape=mxgraph.aws4.nat_gateway;" vertex="1" parent="1">
          <mxGeometry x="120" y="120" width="40" height="40" as="geometry" />
        </mxCell>
        <mxCell id="5NzhP2JsU66vbnNHi4hS-35" value="NAT" style="text;strokeColor=none;align=center;fillColor=#FFBD24;html=1;verticalAlign=middle;whiteSpace=wrap;rounded=0;" vertex="1" parent="1">
          <mxGeometry x="120" y="160" width="40" height="20" as="geometry" />
        </mxCell>
        <mxCell id="5NzhP2JsU66vbnNHi4hS-36" value="IGW" style="text;strokeColor=none;align=center;fillColor=#FFBD24;html=1;verticalAlign=middle;whiteSpace=wrap;rounded=0;" vertex="1" parent="1">
          <mxGeometry x="40" y="160" width="40" height="20" as="geometry" />
        </mxCell>
        <mxCell id="5NzhP2JsU66vbnNHi4hS-37" value="" style="sketch=0;outlineConnect=0;fontColor=#232F3E;gradientColor=none;fillColor=#4D27AA;strokeColor=none;dashed=0;verticalLabelPosition=bottom;verticalAlign=top;align=center;html=1;fontSize=12;fontStyle=0;aspect=fixed;pointerEvents=1;shape=mxgraph.aws4.route_table;" vertex="1" parent="1">
          <mxGeometry x="38.94999999999999" y="200" width="41.05" height="40" as="geometry" />
        </mxCell>
        <mxCell id="5NzhP2JsU66vbnNHi4hS-38" value="Route Table" style="text;strokeColor=none;align=center;fillColor=#FFBD24;html=1;verticalAlign=middle;whiteSpace=wrap;rounded=0;" vertex="1" parent="1">
          <mxGeometry x="40" y="240" width="70" height="20" as="geometry" />
        </mxCell>
        <mxCell id="5NzhP2JsU66vbnNHi4hS-39" value="" style="sketch=0;outlineConnect=0;fontColor=#232F3E;gradientColor=none;fillColor=#4D27AA;strokeColor=none;dashed=0;verticalLabelPosition=bottom;verticalAlign=top;align=center;html=1;fontSize=12;fontStyle=0;aspect=fixed;pointerEvents=1;shape=mxgraph.aws4.network_access_control_list;" vertex="1" parent="1">
          <mxGeometry x="200" y="120" width="40" height="40" as="geometry" />
        </mxCell>
        <mxCell id="5NzhP2JsU66vbnNHi4hS-40" value="NACL" style="text;strokeColor=none;align=center;fillColor=#FFBD24;html=1;verticalAlign=middle;whiteSpace=wrap;rounded=0;" vertex="1" parent="1">
          <mxGeometry x="200" y="160" width="60" height="20" as="geometry" />
        </mxCell>
        <mxCell id="5NzhP2JsU66vbnNHi4hS-41" value="" style="sketch=0;outlineConnect=0;fontColor=#232F3E;gradientColor=none;fillColor=#4D27AA;strokeColor=none;dashed=0;verticalLabelPosition=bottom;verticalAlign=top;align=center;html=1;fontSize=12;fontStyle=0;aspect=fixed;pointerEvents=1;shape=mxgraph.aws4.application_load_balancer;" vertex="1" parent="1">
          <mxGeometry x="640" y="81" width="38" height="38" as="geometry" />
        </mxCell>
        <mxCell id="5NzhP2JsU66vbnNHi4hS-42" value="Application Load Balancer" style="text;strokeColor=none;align=center;fillColor=#FFBD24;html=1;verticalAlign=middle;whiteSpace=wrap;rounded=0;" vertex="1" parent="1">
          <mxGeometry x="638" y="120" width="82" height="30" as="geometry" />
        </mxCell>
        <mxCell id="5NzhP2JsU66vbnNHi4hS-43" value="" style="sketch=0;outlineConnect=0;fontColor=#232F3E;gradientColor=none;fillColor=#4D27AA;strokeColor=none;dashed=0;verticalLabelPosition=bottom;verticalAlign=top;align=center;html=1;fontSize=12;fontStyle=0;aspect=fixed;pointerEvents=1;shape=mxgraph.aws4.vpn_connection;" vertex="1" parent="1">
          <mxGeometry x="200" y="200" width="35.9" height="40" as="geometry" />
        </mxCell>
        <mxCell id="5NzhP2JsU66vbnNHi4hS-44" value="VPN" style="text;strokeColor=none;align=center;fillColor=#FFBD24;html=1;verticalAlign=middle;whiteSpace=wrap;rounded=0;" vertex="1" parent="1">
          <mxGeometry x="200" y="240" width="40" height="20" as="geometry" />
        </mxCell>
        <mxCell id="5NzhP2JsU66vbnNHi4hS-45" value="" style="sketch=0;outlineConnect=0;fontColor=#232F3E;gradientColor=none;fillColor=#BF0816;strokeColor=none;dashed=0;verticalLabelPosition=bottom;verticalAlign=top;align=center;html=1;fontSize=12;fontStyle=0;aspect=fixed;pointerEvents=1;shape=mxgraph.aws4.role;" vertex="1" parent="1">
          <mxGeometry x="38.95" y="318" width="56.73" height="32" as="geometry" />
        </mxCell>
        <mxCell id="5NzhP2JsU66vbnNHi4hS-46" value="Role" style="text;strokeColor=none;align=center;fillColor=#FFBD24;html=1;verticalAlign=middle;whiteSpace=wrap;rounded=0;" vertex="1" parent="1">
          <mxGeometry x="40" y="350" width="50" height="20" as="geometry" />
        </mxCell>
        <mxCell id="5NzhP2JsU66vbnNHi4hS-47" value="" style="sketch=0;points=[[0,0,0],[0.25,0,0],[0.5,0,0],[0.75,0,0],[1,0,0],[0,1,0],[0.25,1,0],[0.5,1,0],[0.75,1,0],[1,1,0],[0,0.25,0],[0,0.5,0],[0,0.75,0],[1,0.25,0],[1,0.5,0],[1,0.75,0]];outlineConnect=0;fontColor=#232F3E;gradientColor=#60A337;gradientDirection=north;fillColor=#277116;strokeColor=#ffffff;dashed=0;verticalLabelPosition=bottom;verticalAlign=top;align=center;html=1;fontSize=12;fontStyle=0;aspect=fixed;shape=mxgraph.aws4.resourceIcon;resIcon=mxgraph.aws4.s3;" vertex="1" parent="1">
          <mxGeometry x="760" width="40" height="40" as="geometry" />
        </mxCell>
        <mxCell id="5NzhP2JsU66vbnNHi4hS-48" value="S3" style="text;strokeColor=none;align=center;fillColor=#FFBD24;html=1;verticalAlign=middle;whiteSpace=wrap;rounded=0;" vertex="1" parent="1">
          <mxGeometry x="760" y="40" width="40" height="20" as="geometry" />
        </mxCell>
        <mxCell id="5NzhP2JsU66vbnNHi4hS-50" value="" style="sketch=0;points=[[0,0,0],[0.25,0,0],[0.5,0,0],[0.75,0,0],[1,0,0],[0,1,0],[0.25,1,0],[0.5,1,0],[0.75,1,0],[1,1,0],[0,0.25,0],[0,0.5,0],[0,0.75,0],[1,0.25,0],[1,0.5,0],[1,0.75,0]];outlineConnect=0;fontColor=#232F3E;gradientColor=#945DF2;gradientDirection=north;fillColor=#5A30B5;strokeColor=#ffffff;dashed=0;verticalLabelPosition=bottom;verticalAlign=top;align=center;html=1;fontSize=12;fontStyle=0;aspect=fixed;shape=mxgraph.aws4.resourceIcon;resIcon=mxgraph.aws4.athena;" vertex="1" parent="1">
          <mxGeometry x="840" width="40" height="40" as="geometry" />
        </mxCell>
        <mxCell id="5NzhP2JsU66vbnNHi4hS-51" value="Athena" style="text;strokeColor=none;align=center;fillColor=#FFBD24;html=1;verticalAlign=middle;whiteSpace=wrap;rounded=0;" vertex="1" parent="1">
          <mxGeometry x="840" y="40" width="50" height="20" as="geometry" />
        </mxCell>
        <mxCell id="5NzhP2JsU66vbnNHi4hS-52" value="" style="sketch=0;points=[[0,0,0],[0.25,0,0],[0.5,0,0],[0.75,0,0],[1,0,0],[0,1,0],[0.25,1,0],[0.5,1,0],[0.75,1,0],[1,1,0],[0,0.25,0],[0,0.5,0],[0,0.75,0],[1,0.25,0],[1,0.5,0],[1,0.75,0]];outlineConnect=0;fontColor=#232F3E;gradientColor=#945DF2;gradientDirection=north;fillColor=#5A30B5;strokeColor=#ffffff;dashed=0;verticalLabelPosition=bottom;verticalAlign=top;align=center;html=1;fontSize=12;fontStyle=0;aspect=fixed;shape=mxgraph.aws4.resourceIcon;resIcon=mxgraph.aws4.elasticsearch_service;" vertex="1" parent="1">
          <mxGeometry x="960" width="40" height="40" as="geometry" />
        </mxCell>
        <mxCell id="5NzhP2JsU66vbnNHi4hS-53" value="Elastic Search" style="text;strokeColor=none;align=center;fillColor=#FFBD24;html=1;verticalAlign=middle;whiteSpace=wrap;rounded=0;" vertex="1" parent="1">
          <mxGeometry x="960" y="40" width="60" height="30" as="geometry" />
        </mxCell>
        <mxCell id="5NzhP2JsU66vbnNHi4hS-54" value="" style="sketch=0;points=[[0,0,0],[0.25,0,0],[0.5,0,0],[0.75,0,0],[1,0,0],[0,1,0],[0.25,1,0],[0.5,1,0],[0.75,1,0],[1,1,0],[0,0.25,0],[0,0.5,0],[0,0.75,0],[1,0.25,0],[1,0.5,0],[1,0.75,0]];outlineConnect=0;fontColor=#232F3E;gradientColor=#F78E04;gradientDirection=north;fillColor=#D05C17;strokeColor=#ffffff;dashed=0;verticalLabelPosition=bottom;verticalAlign=top;align=center;html=1;fontSize=12;fontStyle=0;aspect=fixed;shape=mxgraph.aws4.resourceIcon;resIcon=mxgraph.aws4.auto_scaling2;" vertex="1" parent="1">
          <mxGeometry x="120" width="40" height="40" as="geometry" />
        </mxCell>
        <mxCell id="5NzhP2JsU66vbnNHi4hS-55" value="EC2 Auto Scaling" style="text;strokeColor=none;align=center;fillColor=#FFBD24;html=1;verticalAlign=middle;whiteSpace=wrap;rounded=0;" vertex="1" parent="1">
          <mxGeometry x="120" y="40" width="60" height="30" as="geometry" />
        </mxCell>
        <mxCell id="5NzhP2JsU66vbnNHi4hS-56" value="" style="sketch=0;points=[[0,0,0],[0.25,0,0],[0.5,0,0],[0.75,0,0],[1,0,0],[0,1,0],[0.25,1,0],[0.5,1,0],[0.75,1,0],[1,1,0],[0,0.25,0],[0,0.5,0],[0,0.75,0],[1,0.25,0],[1,0.5,0],[1,0.75,0]];outlineConnect=0;fontColor=#232F3E;gradientColor=#F78E04;gradientDirection=north;fillColor=#D05C17;strokeColor=#ffffff;dashed=0;verticalLabelPosition=bottom;verticalAlign=top;align=center;html=1;fontSize=12;fontStyle=0;aspect=fixed;shape=mxgraph.aws4.resourceIcon;resIcon=mxgraph.aws4.auto_scaling3;" vertex="1" parent="1">
          <mxGeometry x="200" width="40" height="40" as="geometry" />
        </mxCell>
        <mxCell id="5NzhP2JsU66vbnNHi4hS-57" value="Auto Scaling" style="text;strokeColor=none;align=center;fillColor=#FFBD24;html=1;verticalAlign=middle;whiteSpace=wrap;rounded=0;" vertex="1" parent="1">
          <mxGeometry x="200" y="40" width="50" height="30" as="geometry" />
        </mxCell>
        <mxCell id="5NzhP2JsU66vbnNHi4hS-58" value="" style="sketch=0;points=[[0,0,0],[0.25,0,0],[0.5,0,0],[0.75,0,0],[1,0,0],[0,1,0],[0.25,1,0],[0.5,1,0],[0.75,1,0],[1,1,0],[0,0.25,0],[0,0.5,0],[0,0.75,0],[1,0.25,0],[1,0.5,0],[1,0.75,0]];outlineConnect=0;fontColor=#232F3E;gradientColor=#F78E04;gradientDirection=north;fillColor=#D05C17;strokeColor=#ffffff;dashed=0;verticalLabelPosition=bottom;verticalAlign=top;align=center;html=1;fontSize=12;fontStyle=0;aspect=fixed;shape=mxgraph.aws4.resourceIcon;resIcon=mxgraph.aws4.lambda;" vertex="1" parent="1">
          <mxGeometry x="1040" width="40" height="40" as="geometry" />
        </mxCell>
        <mxCell id="5NzhP2JsU66vbnNHi4hS-59" value="Lambda" style="text;strokeColor=none;align=center;fillColor=#FFBD24;html=1;verticalAlign=middle;whiteSpace=wrap;rounded=0;" vertex="1" parent="1">
          <mxGeometry x="1040" y="40" width="50" height="20" as="geometry" />
        </mxCell>
        <mxCell id="5NzhP2JsU66vbnNHi4hS-60" value="" style="sketch=0;outlineConnect=0;fontColor=#232F3E;gradientColor=none;fillColor=#D45B07;strokeColor=none;dashed=0;verticalLabelPosition=bottom;verticalAlign=top;align=center;html=1;fontSize=12;fontStyle=0;aspect=fixed;pointerEvents=1;shape=mxgraph.aws4.ecs_service;" vertex="1" parent="1">
          <mxGeometry x="40.5" y="640" width="32.5" height="40" as="geometry" />
        </mxCell>
        <mxCell id="5NzhP2JsU66vbnNHi4hS-61" value="Service" style="text;strokeColor=none;align=center;fillColor=#FFBD24;html=1;verticalAlign=middle;whiteSpace=wrap;rounded=0;" vertex="1" parent="1">
          <mxGeometry x="40.5" y="680" width="49.5" height="20" as="geometry" />
        </mxCell>
        <mxCell id="5NzhP2JsU66vbnNHi4hS-62" value="" style="sketch=0;outlineConnect=0;fontColor=#232F3E;gradientColor=none;fillColor=#D45B07;strokeColor=none;dashed=0;verticalLabelPosition=bottom;verticalAlign=top;align=center;html=1;fontSize=12;fontStyle=0;aspect=fixed;pointerEvents=1;shape=mxgraph.aws4.registry;" vertex="1" parent="1">
          <mxGeometry x="120" y="640" width="40" height="40" as="geometry" />
        </mxCell>
        <mxCell id="5NzhP2JsU66vbnNHi4hS-63" value="Registry" style="text;strokeColor=none;align=center;fillColor=#FFBD24;html=1;verticalAlign=middle;whiteSpace=wrap;rounded=0;" vertex="1" parent="1">
          <mxGeometry x="120" y="680" width="50" height="20" as="geometry" />
        </mxCell>
        <mxCell id="5NzhP2JsU66vbnNHi4hS-64" value="" style="sketch=0;points=[[0,0,0],[0.25,0,0],[0.5,0,0],[0.75,0,0],[1,0,0],[0,1,0],[0.25,1,0],[0.5,1,0],[0.75,1,0],[1,1,0],[0,0.25,0],[0,0.5,0],[0,0.75,0],[1,0.25,0],[1,0.5,0],[1,0.75,0]];outlineConnect=0;fontColor=#232F3E;gradientColor=#4D72F3;gradientDirection=north;fillColor=#3334B9;strokeColor=#ffffff;dashed=0;verticalLabelPosition=bottom;verticalAlign=top;align=center;html=1;fontSize=12;fontStyle=0;aspect=fixed;shape=mxgraph.aws4.resourceIcon;resIcon=mxgraph.aws4.simple_email_service;" vertex="1" parent="1">
          <mxGeometry x="960" y="81" width="40" height="40" as="geometry" />
        </mxCell>
        <mxCell id="5NzhP2JsU66vbnNHi4hS-65" value="Simple Email Service" style="text;strokeColor=none;align=center;fillColor=#FFBD24;html=1;verticalAlign=middle;whiteSpace=wrap;rounded=0;" vertex="1" parent="1">
          <mxGeometry x="960" y="121" width="80" height="30" as="geometry" />
        </mxCell>
        <mxCell id="5NzhP2JsU66vbnNHi4hS-66" value="Cloud Trail" style="text;strokeColor=none;align=center;fillColor=#FFBD24;html=1;verticalAlign=middle;whiteSpace=wrap;rounded=0;" vertex="1" parent="1">
          <mxGeometry x="400" y="40" width="60" height="20" as="geometry" />
        </mxCell>
        <mxCell id="5NzhP2JsU66vbnNHi4hS-67" value="" style="sketch=0;points=[[0,0,0],[0.25,0,0],[0.5,0,0],[0.75,0,0],[1,0,0],[0,1,0],[0.25,1,0],[0.5,1,0],[0.75,1,0],[1,1,0],[0,0.25,0],[0,0.5,0],[0,0.75,0],[1,0.25,0],[1,0.5,0],[1,0.75,0]];outlineConnect=0;fontColor=#232F3E;gradientColor=#4D72F3;gradientDirection=north;fillColor=#3334B9;strokeColor=#ffffff;dashed=0;verticalLabelPosition=bottom;verticalAlign=top;align=center;html=1;fontSize=12;fontStyle=0;aspect=fixed;shape=mxgraph.aws4.resourceIcon;resIcon=mxgraph.aws4.codecommit;" vertex="1" parent="1">
          <mxGeometry x="200" y="720" width="40" height="40" as="geometry" />
        </mxCell>
        <mxCell id="5NzhP2JsU66vbnNHi4hS-68" value="Code Commit" style="text;strokeColor=none;align=center;fillColor=#FFBD24;html=1;verticalAlign=middle;whiteSpace=wrap;rounded=0;" vertex="1" parent="1">
          <mxGeometry x="200" y="760" width="60" height="30" as="geometry" />
        </mxCell>
        <mxCell id="5NzhP2JsU66vbnNHi4hS-69" value="" style="sketch=0;points=[[0,0,0],[0.25,0,0],[0.5,0,0],[0.75,0,0],[1,0,0],[0,1,0],[0.25,1,0],[0.5,1,0],[0.75,1,0],[1,1,0],[0,0.25,0],[0,0.5,0],[0,0.75,0],[1,0.25,0],[1,0.5,0],[1,0.75,0]];outlineConnect=0;fontColor=#232F3E;gradientColor=#4D72F3;gradientDirection=north;fillColor=#3334B9;strokeColor=#ffffff;dashed=0;verticalLabelPosition=bottom;verticalAlign=top;align=center;html=1;fontSize=12;fontStyle=0;aspect=fixed;shape=mxgraph.aws4.resourceIcon;resIcon=mxgraph.aws4.codedeploy;" vertex="1" parent="1">
          <mxGeometry x="282" y="720" width="40" height="40" as="geometry" />
        </mxCell>
        <mxCell id="5NzhP2JsU66vbnNHi4hS-70" value="Code Deploy" style="text;strokeColor=none;align=center;fillColor=#FFBD24;html=1;verticalAlign=middle;whiteSpace=wrap;rounded=0;" vertex="1" parent="1">
          <mxGeometry x="282" y="760" width="48" height="30" as="geometry" />
        </mxCell>
        <mxCell id="5NzhP2JsU66vbnNHi4hS-71" value="" style="sketch=0;points=[[0,0,0],[0.25,0,0],[0.5,0,0],[0.75,0,0],[1,0,0],[0,1,0],[0.25,1,0],[0.5,1,0],[0.75,1,0],[1,1,0],[0,0.25,0],[0,0.5,0],[0,0.75,0],[1,0.25,0],[1,0.5,0],[1,0.75,0]];outlineConnect=0;fontColor=#232F3E;gradientColor=#4D72F3;gradientDirection=north;fillColor=#3334B9;strokeColor=#ffffff;dashed=0;verticalLabelPosition=bottom;verticalAlign=top;align=center;html=1;fontSize=12;fontStyle=0;aspect=fixed;shape=mxgraph.aws4.resourceIcon;resIcon=mxgraph.aws4.codepipeline;" vertex="1" parent="1">
          <mxGeometry x="360" y="720" width="40" height="40" as="geometry" />
        </mxCell>
        <mxCell id="5NzhP2JsU66vbnNHi4hS-72" value="Code Pipeline" style="text;strokeColor=none;align=center;fillColor=#FFBD24;html=1;verticalAlign=middle;whiteSpace=wrap;rounded=0;" vertex="1" parent="1">
          <mxGeometry x="360" y="760" width="60" height="30" as="geometry" />
        </mxCell>
        <mxCell id="5NzhP2JsU66vbnNHi4hS-73" value="" style="sketch=0;points=[[0,0,0],[0.25,0,0],[0.5,0,0],[0.75,0,0],[1,0,0],[0,1,0],[0.25,1,0],[0.5,1,0],[0.75,1,0],[1,1,0],[0,0.25,0],[0,0.5,0],[0,0.75,0],[1,0.25,0],[1,0.5,0],[1,0.75,0]];points=[[0,0,0],[0.25,0,0],[0.5,0,0],[0.75,0,0],[1,0,0],[0,1,0],[0.25,1,0],[0.5,1,0],[0.75,1,0],[1,1,0],[0,0.25,0],[0,0.5,0],[0,0.75,0],[1,0.25,0],[1,0.5,0],[1,0.75,0]];outlineConnect=0;fontColor=#232F3E;gradientColor=#F34482;gradientDirection=north;fillColor=#BC1356;strokeColor=#ffffff;dashed=0;verticalLabelPosition=bottom;verticalAlign=top;align=center;html=1;fontSize=12;fontStyle=0;aspect=fixed;shape=mxgraph.aws4.resourceIcon;resIcon=mxgraph.aws4.cloudformation;" vertex="1" parent="1">
          <mxGeometry x="320" y="80" width="40" height="40" as="geometry" />
        </mxCell>
        <mxCell id="5NzhP2JsU66vbnNHi4hS-74" value="Cloud Formation" style="text;strokeColor=none;align=center;fillColor=#FFBD24;html=1;verticalAlign=middle;whiteSpace=wrap;rounded=0;" vertex="1" parent="1">
          <mxGeometry x="320" y="120" width="60" height="30" as="geometry" />
        </mxCell>
        <mxCell id="5NzhP2JsU66vbnNHi4hS-75" value="" style="sketch=0;outlineConnect=0;fontColor=#232F3E;gradientColor=none;fillColor=#4D27AA;strokeColor=none;dashed=0;verticalLabelPosition=bottom;verticalAlign=top;align=center;html=1;fontSize=12;fontStyle=0;aspect=fixed;pointerEvents=1;shape=mxgraph.aws4.internet_gateway;" vertex="1" parent="1">
          <mxGeometry x="371" y="420" width="40" height="40" as="geometry" />
        </mxCell>
        <mxCell id="5NzhP2JsU66vbnNHi4hS-1" value="AWS Cloud" style="points=[[0,0],[0.25,0],[0.5,0],[0.75,0],[1,0],[1,0.25],[1,0.5],[1,0.75],[1,1],[0.75,1],[0.5,1],[0.25,1],[0,1],[0,0.75],[0,0.5],[0,0.25]];outlineConnect=0;gradientColor=none;html=1;whiteSpace=wrap;fontSize=12;fontStyle=0;container=1;pointerEvents=0;collapsible=0;recursiveResize=0;shape=mxgraph.aws4.group;grIcon=mxgraph.aws4.group_aws_cloud_alt;strokeColor=#232F3E;fillColor=none;verticalAlign=top;align=left;spacingLeft=30;fontColor=#232F3E;dashed=0;" vertex="1" parent="1">
          <mxGeometry x="403" y="240" width="765" height="400" as="geometry" />
        </mxCell>
        <mxCell id="5NzhP2JsU66vbnNHi4hS-3" value="Region" style="points=[[0,0],[0.25,0],[0.5,0],[0.75,0],[1,0],[1,0.25],[1,0.5],[1,0.75],[1,1],[0.75,1],[0.5,1],[0.25,1],[0,1],[0,0.75],[0,0.5],[0,0.25]];outlineConnect=0;gradientColor=none;html=1;whiteSpace=wrap;fontSize=12;fontStyle=0;container=1;pointerEvents=0;collapsible=0;recursiveResize=0;shape=mxgraph.aws4.group;grIcon=mxgraph.aws4.group_region;strokeColor=#147EBA;fillColor=none;verticalAlign=top;align=left;spacingLeft=30;fontColor=#147EBA;dashed=1;" vertex="1" parent="5NzhP2JsU66vbnNHi4hS-1">
          <mxGeometry x="20" y="30" width="734" height="350" as="geometry" />
        </mxCell>
        <mxCell id="5NzhP2JsU66vbnNHi4hS-9" value="Availability Zone" style="fillColor=none;strokeColor=#147EBA;dashed=1;verticalAlign=top;fontStyle=0;fontColor=#147EBA;whiteSpace=wrap;html=1;" vertex="1" parent="5NzhP2JsU66vbnNHi4hS-3">
          <mxGeometry x="140" y="20" width="440" height="130" as="geometry" />
        </mxCell>
        <mxCell id="5NzhP2JsU66vbnNHi4hS-10" value="Availability Zone" style="fillColor=none;strokeColor=#147EBA;dashed=1;verticalAlign=top;fontStyle=0;fontColor=#147EBA;whiteSpace=wrap;html=1;" vertex="1" parent="5NzhP2JsU66vbnNHi4hS-3">
          <mxGeometry x="140" y="200" width="440" height="130" as="geometry" />
        </mxCell>
        <mxCell id="5NzhP2JsU66vbnNHi4hS-18" value="" style="sketch=0;outlineConnect=0;fontColor=#232F3E;gradientColor=none;fillColor=#2E27AD;strokeColor=none;dashed=0;verticalLabelPosition=bottom;verticalAlign=top;align=center;html=1;fontSize=12;fontStyle=0;aspect=fixed;pointerEvents=1;shape=mxgraph.aws4.cache_node;" vertex="1" parent="5NzhP2JsU66vbnNHi4hS-3">
          <mxGeometry x="419" y="160" width="40" height="40" as="geometry" />
        </mxCell>
        <mxCell id="5NzhP2JsU66vbnNHi4hS-88" style="edgeStyle=orthogonalEdgeStyle;rounded=0;orthogonalLoop=1;jettySize=auto;html=1;" edge="1" parent="5NzhP2JsU66vbnNHi4hS-3" source="5NzhP2JsU66vbnNHi4hS-85" target="5NzhP2JsU66vbnNHi4hS-96">
          <mxGeometry relative="1" as="geometry">
            <mxPoint x="103" y="265" as="targetPoint" />
            <Array as="points">
              <mxPoint x="103" y="170" />
              <mxPoint x="103" y="265" />
            </Array>
          </mxGeometry>
        </mxCell>
        <mxCell id="5NzhP2JsU66vbnNHi4hS-89" style="edgeStyle=orthogonalEdgeStyle;rounded=0;orthogonalLoop=1;jettySize=auto;html=1;" edge="1" parent="5NzhP2JsU66vbnNHi4hS-3" source="5NzhP2JsU66vbnNHi4hS-85" target="5NzhP2JsU66vbnNHi4hS-95">
          <mxGeometry relative="1" as="geometry">
            <mxPoint x="115" y="92" as="targetPoint" />
            <Array as="points">
              <mxPoint x="103" y="170" />
              <mxPoint x="103" y="92" />
            </Array>
          </mxGeometry>
        </mxCell>
        <mxCell id="5NzhP2JsU66vbnNHi4hS-85" value="" style="sketch=0;outlineConnect=0;fontColor=#232F3E;gradientColor=none;fillColor=#4D27AA;strokeColor=none;dashed=0;verticalLabelPosition=bottom;verticalAlign=top;align=center;html=1;fontSize=12;fontStyle=0;aspect=fixed;pointerEvents=1;shape=mxgraph.aws4.network_load_balancer;" vertex="1" parent="5NzhP2JsU66vbnNHi4hS-3">
          <mxGeometry x="25" y="150" width="40" height="40" as="geometry" />
        </mxCell>
        <mxCell id="5NzhP2JsU66vbnNHi4hS-86" value="Network Load Balancer" style="text;strokeColor=none;align=center;fillColor=#FFBD24;html=1;verticalAlign=middle;whiteSpace=wrap;rounded=0;" vertex="1" parent="5NzhP2JsU66vbnNHi4hS-3">
          <mxGeometry x="7" y="190" width="80" height="30" as="geometry" />
        </mxCell>
        <mxCell id="5NzhP2JsU66vbnNHi4hS-92" value="VPC" style="points=[[0,0],[0.25,0],[0.5,0],[0.75,0],[1,0],[1,0.25],[1,0.5],[1,0.75],[1,1],[0.75,1],[0.5,1],[0.25,1],[0,1],[0,0.75],[0,0.5],[0,0.25]];outlineConnect=0;gradientColor=none;html=1;whiteSpace=wrap;fontSize=12;fontStyle=0;container=1;pointerEvents=0;collapsible=0;recursiveResize=0;shape=mxgraph.aws4.group;grIcon=mxgraph.aws4.group_vpc;strokeColor=#248814;fillColor=none;verticalAlign=top;align=left;spacingLeft=30;fontColor=#AAB7B8;dashed=0;" vertex="1" parent="5NzhP2JsU66vbnNHi4hS-3">
          <mxGeometry x="146" y="41" width="425" height="103" as="geometry" />
        </mxCell>
        <mxCell id="5NzhP2JsU66vbnNHi4hS-94" value="VPC" style="points=[[0,0],[0.25,0],[0.5,0],[0.75,0],[1,0],[1,0.25],[1,0.5],[1,0.75],[1,1],[0.75,1],[0.5,1],[0.25,1],[0,1],[0,0.75],[0,0.5],[0,0.25]];outlineConnect=0;gradientColor=none;html=1;whiteSpace=wrap;fontSize=12;fontStyle=0;container=1;pointerEvents=0;collapsible=0;recursiveResize=0;shape=mxgraph.aws4.group;grIcon=mxgraph.aws4.group_vpc;strokeColor=#248814;fillColor=none;verticalAlign=top;align=left;spacingLeft=30;fontColor=#AAB7B8;dashed=0;" vertex="1" parent="5NzhP2JsU66vbnNHi4hS-3">
          <mxGeometry x="146" y="223" width="425" height="103" as="geometry" />
        </mxCell>
        <mxCell id="5NzhP2JsU66vbnNHi4hS-98" value="Private subnet" style="points=[[0,0],[0.25,0],[0.5,0],[0.75,0],[1,0],[1,0.25],[1,0.5],[1,0.75],[1,1],[0.75,1],[0.5,1],[0.25,1],[0,1],[0,0.75],[0,0.5],[0,0.25]];outlineConnect=0;gradientColor=none;html=1;whiteSpace=wrap;fontSize=12;fontStyle=0;container=1;pointerEvents=0;collapsible=0;recursiveResize=0;shape=mxgraph.aws4.group;grIcon=mxgraph.aws4.group_security_group;grStroke=0;strokeColor=#147EBA;fillColor=#E6F2F8;verticalAlign=top;align=left;spacingLeft=30;fontColor=#147EBA;dashed=0;" vertex="1" parent="5NzhP2JsU66vbnNHi4hS-94">
          <mxGeometry x="162" y="8" width="101" height="87" as="geometry" />
        </mxCell>
        <mxCell id="5NzhP2JsU66vbnNHi4hS-104" value="Private subnet" style="points=[[0,0],[0.25,0],[0.5,0],[0.75,0],[1,0],[1,0.25],[1,0.5],[1,0.75],[1,1],[0.75,1],[0.5,1],[0.25,1],[0,1],[0,0.75],[0,0.5],[0,0.25]];outlineConnect=0;gradientColor=none;html=1;whiteSpace=wrap;fontSize=12;fontStyle=0;container=1;pointerEvents=0;collapsible=0;recursiveResize=0;shape=mxgraph.aws4.group;grIcon=mxgraph.aws4.group_security_group;grStroke=0;strokeColor=#147EBA;fillColor=#E6F2F8;verticalAlign=top;align=left;spacingLeft=30;fontColor=#147EBA;dashed=0;" vertex="1" parent="5NzhP2JsU66vbnNHi4hS-94">
          <mxGeometry x="304" y="8" width="101" height="87" as="geometry" />
        </mxCell>
        <mxCell id="5NzhP2JsU66vbnNHi4hS-119" value="" style="endArrow=classic;html=1;rounded=0;" edge="1" parent="5NzhP2JsU66vbnNHi4hS-94" target="5NzhP2JsU66vbnNHi4hS-18">
          <mxGeometry width="50" height="50" relative="1" as="geometry">
            <mxPoint x="263" y="8" as="sourcePoint" />
            <mxPoint x="313" y="-42" as="targetPoint" />
            <Array as="points" />
          </mxGeometry>
        </mxCell>
        <mxCell id="5NzhP2JsU66vbnNHi4hS-112" style="edgeStyle=orthogonalEdgeStyle;rounded=0;orthogonalLoop=1;jettySize=auto;html=1;exitX=1;exitY=0.5;exitDx=0;exitDy=0;entryX=0.006;entryY=0.578;entryDx=0;entryDy=0;entryPerimeter=0;" edge="1" parent="5NzhP2JsU66vbnNHi4hS-3" source="5NzhP2JsU66vbnNHi4hS-95" target="5NzhP2JsU66vbnNHi4hS-97">
          <mxGeometry relative="1" as="geometry" />
        </mxCell>
        <mxCell id="5NzhP2JsU66vbnNHi4hS-95" value="Public subnet" style="points=[[0,0],[0.25,0],[0.5,0],[0.75,0],[1,0],[1,0.25],[1,0.5],[1,0.75],[1,1],[0.75,1],[0.5,1],[0.25,1],[0,1],[0,0.75],[0,0.5],[0,0.25]];outlineConnect=0;gradientColor=none;html=1;whiteSpace=wrap;fontSize=12;fontStyle=0;container=1;pointerEvents=0;collapsible=0;recursiveResize=0;shape=mxgraph.aws4.group;grIcon=mxgraph.aws4.group_security_group;grStroke=0;strokeColor=#248814;fillColor=#E9F3E6;verticalAlign=top;align=left;spacingLeft=30;fontColor=#248814;dashed=0;" vertex="1" parent="5NzhP2JsU66vbnNHi4hS-3">
          <mxGeometry x="177" y="62" width="92" height="76" as="geometry" />
        </mxCell>
        <mxCell id="5NzhP2JsU66vbnNHi4hS-109" value="Bastion" style="text;strokeColor=none;align=center;fillColor=none;html=1;verticalAlign=middle;whiteSpace=wrap;rounded=0;" vertex="1" parent="5NzhP2JsU66vbnNHi4hS-95">
          <mxGeometry x="16" y="38" width="60" height="30" as="geometry" />
        </mxCell>
        <mxCell id="5NzhP2JsU66vbnNHi4hS-97" value="Private subnet" style="points=[[0,0],[0.25,0],[0.5,0],[0.75,0],[1,0],[1,0.25],[1,0.5],[1,0.75],[1,1],[0.75,1],[0.5,1],[0.25,1],[0,1],[0,0.75],[0,0.5],[0,0.25]];outlineConnect=0;gradientColor=none;html=1;whiteSpace=wrap;fontSize=12;fontStyle=0;container=1;pointerEvents=0;collapsible=0;recursiveResize=0;shape=mxgraph.aws4.group;grIcon=mxgraph.aws4.group_security_group;grStroke=0;strokeColor=#147EBA;fillColor=#E6F2F8;verticalAlign=top;align=left;spacingLeft=30;fontColor=#147EBA;dashed=0;" vertex="1" parent="5NzhP2JsU66vbnNHi4hS-3">
          <mxGeometry x="309.5" y="49" width="101" height="87" as="geometry" />
        </mxCell>
        <mxCell id="5NzhP2JsU66vbnNHi4hS-12" value="" style="sketch=0;points=[[0,0,0],[0.25,0,0],[0.5,0,0],[0.75,0,0],[1,0,0],[0,1,0],[0.25,1,0],[0.5,1,0],[0.75,1,0],[1,1,0],[0,0.25,0],[0,0.5,0],[0,0.75,0],[1,0.25,0],[1,0.5,0],[1,0.75,0]];outlineConnect=0;fontColor=#232F3E;gradientColor=#F78E04;gradientDirection=north;fillColor=#D05C17;strokeColor=#ffffff;dashed=0;verticalLabelPosition=bottom;verticalAlign=top;align=center;html=1;fontSize=12;fontStyle=0;aspect=fixed;shape=mxgraph.aws4.resourceIcon;resIcon=mxgraph.aws4.ec2;" vertex="1" parent="5NzhP2JsU66vbnNHi4hS-3">
          <mxGeometry x="340" y="90" width="40" height="40" as="geometry" />
        </mxCell>
        <mxCell id="5NzhP2JsU66vbnNHi4hS-15" value="" style="sketch=0;points=[[0,0,0],[0.25,0,0],[0.5,0,0],[0.75,0,0],[1,0,0],[0,1,0],[0.25,1,0],[0.5,1,0],[0.75,1,0],[1,1,0],[0,0.25,0],[0,0.5,0],[0,0.75,0],[1,0.25,0],[1,0.5,0],[1,0.75,0]];outlineConnect=0;fontColor=#232F3E;gradientColor=#F78E04;gradientDirection=north;fillColor=#D05C17;strokeColor=#ffffff;dashed=0;verticalLabelPosition=bottom;verticalAlign=top;align=center;html=1;fontSize=12;fontStyle=0;aspect=fixed;shape=mxgraph.aws4.resourceIcon;resIcon=mxgraph.aws4.ec2;" vertex="1" parent="5NzhP2JsU66vbnNHi4hS-3">
          <mxGeometry x="340" y="272" width="40" height="40" as="geometry" />
        </mxCell>
        <mxCell id="5NzhP2JsU66vbnNHi4hS-99" value="Private subnet" style="points=[[0,0],[0.25,0],[0.5,0],[0.75,0],[1,0],[1,0.25],[1,0.5],[1,0.75],[1,1],[0.75,1],[0.5,1],[0.25,1],[0,1],[0,0.75],[0,0.5],[0,0.25]];outlineConnect=0;gradientColor=none;html=1;whiteSpace=wrap;fontSize=12;fontStyle=0;container=1;pointerEvents=0;collapsible=0;recursiveResize=0;shape=mxgraph.aws4.group;grIcon=mxgraph.aws4.group_security_group;grStroke=0;strokeColor=#147EBA;fillColor=#E6F2F8;verticalAlign=top;align=left;spacingLeft=30;fontColor=#147EBA;dashed=0;" vertex="1" parent="5NzhP2JsU66vbnNHi4hS-3">
          <mxGeometry x="450" y="49" width="101" height="87" as="geometry" />
        </mxCell>
        <mxCell id="5NzhP2JsU66vbnNHi4hS-117" value="" style="endArrow=classic;html=1;rounded=0;" edge="1" parent="5NzhP2JsU66vbnNHi4hS-99" target="5NzhP2JsU66vbnNHi4hS-18">
          <mxGeometry width="50" height="50" relative="1" as="geometry">
            <mxPoint x="-40" y="87" as="sourcePoint" />
            <mxPoint x="10" y="37" as="targetPoint" />
          </mxGeometry>
        </mxCell>
        <mxCell id="5NzhP2JsU66vbnNHi4hS-17" value="" style="sketch=0;outlineConnect=0;fontColor=#232F3E;gradientColor=none;fillColor=#2E27AD;strokeColor=none;dashed=0;verticalLabelPosition=bottom;verticalAlign=top;align=center;html=1;fontSize=12;fontStyle=0;aspect=fixed;pointerEvents=1;shape=mxgraph.aws4.rds_mariadb_instance;" vertex="1" parent="5NzhP2JsU66vbnNHi4hS-3">
          <mxGeometry x="480.5" y="272" width="40" height="40" as="geometry" />
        </mxCell>
        <mxCell id="5NzhP2JsU66vbnNHi4hS-16" value="" style="sketch=0;outlineConnect=0;fontColor=#232F3E;gradientColor=none;fillColor=#2E27AD;strokeColor=none;dashed=0;verticalLabelPosition=bottom;verticalAlign=top;align=center;html=1;fontSize=12;fontStyle=0;aspect=fixed;pointerEvents=1;shape=mxgraph.aws4.rds_mariadb_instance;" vertex="1" parent="5NzhP2JsU66vbnNHi4hS-3">
          <mxGeometry x="480.5" y="90" width="40" height="40" as="geometry" />
        </mxCell>
        <mxCell id="5NzhP2JsU66vbnNHi4hS-122" value="" style="edgeStyle=orthogonalEdgeStyle;rounded=0;orthogonalLoop=1;jettySize=auto;html=1;entryX=0;entryY=0.5;entryDx=0;entryDy=0;exitX=1;exitY=0.5;exitDx=0;exitDy=0;" edge="1" parent="5NzhP2JsU66vbnNHi4hS-3" source="5NzhP2JsU66vbnNHi4hS-96" target="5NzhP2JsU66vbnNHi4hS-98">
          <mxGeometry relative="1" as="geometry">
            <mxPoint x="215" y="181" as="sourcePoint" />
            <mxPoint x="289" y="193" as="targetPoint" />
            <Array as="points">
              <mxPoint x="266" y="275" />
              <mxPoint x="287" y="275" />
            </Array>
          </mxGeometry>
        </mxCell>
        <mxCell id="5NzhP2JsU66vbnNHi4hS-96" value="Public subnet" style="points=[[0,0],[0.25,0],[0.5,0],[0.75,0],[1,0],[1,0.25],[1,0.5],[1,0.75],[1,1],[0.75,1],[0.5,1],[0.25,1],[0,1],[0,0.75],[0,0.5],[0,0.25]];outlineConnect=0;gradientColor=none;html=1;whiteSpace=wrap;fontSize=12;fontStyle=0;container=1;pointerEvents=0;collapsible=0;recursiveResize=0;shape=mxgraph.aws4.group;grIcon=mxgraph.aws4.group_security_group;grStroke=0;strokeColor=#248814;fillColor=#E9F3E6;verticalAlign=top;align=left;spacingLeft=30;fontColor=#248814;dashed=0;" vertex="1" parent="5NzhP2JsU66vbnNHi4hS-3">
          <mxGeometry x="174" y="242" width="92" height="76" as="geometry" />
        </mxCell>
        <mxCell id="5NzhP2JsU66vbnNHi4hS-110" value="Bastion" style="text;strokeColor=none;align=center;fillColor=none;html=1;verticalAlign=middle;whiteSpace=wrap;rounded=0;" vertex="1" parent="5NzhP2JsU66vbnNHi4hS-96">
          <mxGeometry x="16" y="40" width="60" height="30" as="geometry" />
        </mxCell>
        <mxCell id="5NzhP2JsU66vbnNHi4hS-118" value="" style="endArrow=classic;html=1;rounded=0;" edge="1" parent="5NzhP2JsU66vbnNHi4hS-3" source="5NzhP2JsU66vbnNHi4hS-18" target="5NzhP2JsU66vbnNHi4hS-99">
          <mxGeometry width="50" height="50" relative="1" as="geometry">
            <mxPoint x="456" y="155" as="sourcePoint" />
            <mxPoint x="506" y="105" as="targetPoint" />
          </mxGeometry>
        </mxCell>
        <mxCell id="5NzhP2JsU66vbnNHi4hS-120" value="" style="endArrow=classic;html=1;rounded=0;" edge="1" parent="5NzhP2JsU66vbnNHi4hS-3" target="5NzhP2JsU66vbnNHi4hS-104">
          <mxGeometry width="50" height="50" relative="1" as="geometry">
            <mxPoint x="456" y="200" as="sourcePoint" />
            <mxPoint x="506" y="150" as="targetPoint" />
          </mxGeometry>
        </mxCell>
        <mxCell id="5NzhP2JsU66vbnNHi4hS-127" value="" style="sketch=0;outlineConnect=0;fontColor=#232F3E;gradientColor=none;fillColor=#4D27AA;strokeColor=none;dashed=0;verticalLabelPosition=bottom;verticalAlign=top;align=center;html=1;fontSize=12;fontStyle=0;aspect=fixed;pointerEvents=1;shape=mxgraph.aws4.endpoint;" vertex="1" parent="5NzhP2JsU66vbnNHi4hS-3">
          <mxGeometry x="648" y="154" width="40" height="40" as="geometry" />
        </mxCell>
        <mxCell id="5NzhP2JsU66vbnNHi4hS-128" value="EndPoint" style="text;strokeColor=none;align=center;fillColor=#FFBD24;html=1;verticalAlign=middle;whiteSpace=wrap;rounded=0;" vertex="1" parent="5NzhP2JsU66vbnNHi4hS-3">
          <mxGeometry x="638" y="194" width="60" height="20" as="geometry" />
        </mxCell>
        <mxCell id="5NzhP2JsU66vbnNHi4hS-124" value="S3" style="text;strokeColor=none;align=center;fillColor=#FFBD24;html=1;verticalAlign=middle;whiteSpace=wrap;rounded=0;" vertex="1" parent="1">
          <mxGeometry x="1220" y="452" width="40" height="20" as="geometry" />
        </mxCell>
        <mxCell id="5NzhP2JsU66vbnNHi4hS-123" value="" style="sketch=0;points=[[0,0,0],[0.25,0,0],[0.5,0,0],[0.75,0,0],[1,0,0],[0,1,0],[0.25,1,0],[0.5,1,0],[0.75,1,0],[1,1,0],[0,0.25,0],[0,0.5,0],[0,0.75,0],[1,0.25,0],[1,0.5,0],[1,0.75,0]];outlineConnect=0;fontColor=#232F3E;gradientColor=#60A337;gradientDirection=north;fillColor=#277116;strokeColor=#ffffff;dashed=0;verticalLabelPosition=bottom;verticalAlign=top;align=center;html=1;fontSize=12;fontStyle=0;aspect=fixed;shape=mxgraph.aws4.resourceIcon;resIcon=mxgraph.aws4.s3;" vertex="1" parent="1">
          <mxGeometry x="1220" y="414" width="40" height="40" as="geometry" />
        </mxCell>
        <mxCell id="5NzhP2JsU66vbnNHi4hS-125" style="edgeStyle=orthogonalEdgeStyle;rounded=0;orthogonalLoop=1;jettySize=auto;html=1;exitX=1;exitY=0.5;exitDx=0;exitDy=0;entryX=0;entryY=0.75;entryDx=0;entryDy=0;entryPerimeter=0;" edge="1" parent="1" source="5NzhP2JsU66vbnNHi4hS-9" target="5NzhP2JsU66vbnNHi4hS-123">
          <mxGeometry relative="1" as="geometry" />
        </mxCell>
        <mxCell id="5NzhP2JsU66vbnNHi4hS-76" value="IGW" style="text;strokeColor=none;align=center;fillColor=#FFBD24;html=1;verticalAlign=middle;whiteSpace=wrap;rounded=0;" vertex="1" parent="1">
          <mxGeometry x="371" y="460" width="40" height="20" as="geometry" />
        </mxCell>
        <mxCell id="5NzhP2JsU66vbnNHi4hS-90" value="" style="endArrow=classic;html=1;rounded=0;" edge="1" parent="1" source="5NzhP2JsU66vbnNHi4hS-75" target="5NzhP2JsU66vbnNHi4hS-85">
          <mxGeometry width="50" height="50" relative="1" as="geometry">
            <mxPoint x="423" y="441" as="sourcePoint" />
            <mxPoint x="473" y="391" as="targetPoint" />
          </mxGeometry>
        </mxCell>
      </root>
    </mxGraphModel>
  </diagram>
</mxfile>
